<svg width="166" height="50" viewBox="0 0 166 50" fill="none" xmlns="http://www.w3.org/2000/svg">
<mask id="mask0_1001_438" style="mask-type:alpha" maskUnits="userSpaceOnUse" x="0" y="0" width="51" height="50">
<rect x="0.5" width="50" height="50" rx="5" fill="#6C38D9"/>
</mask>
<g mask="url(#mask0_1001_438)">
<path d="M0.5 0H50.5V50H0.5V0Z" fill="#B0D0FF" fill-opacity="0.05"/>
<g filter="url(#filter0_d_1001_438)">
<path d="M41.2164 34.8869C42.142 36.4903 40.9869 38.4959 39.1355 38.4959H11.0622C9.2108 38.4959 8.05567 36.4903 8.98137 34.8869L9.67827 33.6799L40.5464 33.7268L41.2164 34.8869Z" fill="#C4866C"/>
<path d="M40.6137 33.844L27.181 10.578C26.7181 9.7763 25.9066 9.375 25.0965 9.375C24.2865 9.375 23.4786 9.7763 23.0157 10.578L8.98088 34.8869C8.05518 36.4903 9.21031 38.4959 11.0617 38.4959H12.4682L25.1001 16.5929L37.7183 38.4959H39.135C40.9864 38.4959 42.1415 36.4903 41.2159 34.8869L40.6137 33.844ZM25.2084 23.386C25.1854 23.3462 25.1281 23.3462 25.1052 23.386L21.1612 30.2171C21.1383 30.2568 21.167 30.3065 21.2129 30.3065H29.1008C29.1467 30.3065 29.1753 30.2568 29.1523 30.2171L25.2084 23.386Z" fill="#FFEED0"/>
<path d="M19.347 33.686L16.5731 38.4959H12.4688L15.2427 33.686H19.347Z" fill="#A56453"/>
</g>
</g>
<g filter="url(#filter1_d_1001_438)">
<path d="M75.375 32.5H73.4219L71.0781 28.5742C70.8633 28.2096 70.6549 27.9004 70.4531 27.6465C70.2513 27.3861 70.043 27.1745 69.8281 27.0117C69.6198 26.849 69.3919 26.7318 69.1445 26.6602C68.9036 26.582 68.6302 26.543 68.3242 26.543H66.9766V32.5H65.3359V18.4961H69.5156C70.1276 18.4961 70.6908 18.5742 71.2051 18.7305C71.7259 18.8802 72.1751 19.1113 72.5527 19.4238C72.9368 19.7363 73.2363 20.127 73.4512 20.5957C73.666 21.0579 73.7734 21.6016 73.7734 22.2266C73.7734 22.7148 73.6986 23.1641 73.5488 23.5742C73.4056 23.9779 73.1973 24.3392 72.9238 24.6582C72.6569 24.9772 72.3314 25.2507 71.9473 25.4785C71.5697 25.6999 71.1432 25.8724 70.668 25.9961V26.0352C70.9023 26.1393 71.1042 26.2598 71.2734 26.3965C71.4492 26.5267 71.6152 26.6829 71.7715 26.8652C71.9277 27.0475 72.0807 27.2559 72.2305 27.4902C72.3867 27.7181 72.5592 27.985 72.748 28.291L75.375 32.5ZM66.9766 19.9805V25.0586H69.2031C69.6133 25.0586 69.9909 24.9967 70.3359 24.873C70.6875 24.7493 70.9902 24.5736 71.2441 24.3457C71.498 24.1113 71.6966 23.8281 71.8398 23.4961C71.9831 23.1576 72.0547 22.7799 72.0547 22.3633C72.0547 21.6146 71.8105 21.0319 71.3223 20.6152C70.8405 20.1921 70.1406 19.9805 69.2227 19.9805H66.9766ZM84.7305 32.5H77.3086V18.4961H84.418V19.9805H78.9492V24.6387H84.0078V26.1133H78.9492V31.0156H84.7305V32.5ZM86.7715 31.9336V30C86.9928 30.1953 87.2565 30.3711 87.5625 30.5273C87.875 30.6836 88.2005 30.8171 88.5391 30.9277C88.8841 31.0319 89.2292 31.1133 89.5742 31.1719C89.9193 31.2305 90.2383 31.2598 90.5312 31.2598C91.5404 31.2598 92.2923 31.0742 92.7871 30.7031C93.2884 30.3255 93.5391 29.7852 93.5391 29.082C93.5391 28.7044 93.4544 28.3757 93.2852 28.0957C93.1224 27.8158 92.8945 27.5618 92.6016 27.334C92.3086 27.0996 91.9603 26.8783 91.5566 26.6699C91.1595 26.4551 90.7298 26.2305 90.2676 25.9961C89.7793 25.7487 89.3236 25.498 88.9004 25.2441C88.4772 24.9902 88.1094 24.7103 87.7969 24.4043C87.4844 24.0983 87.237 23.7533 87.0547 23.3691C86.8789 22.9785 86.791 22.5228 86.791 22.002C86.791 21.3639 86.931 20.8105 87.2109 20.3418C87.4909 19.8665 87.8587 19.4759 88.3145 19.1699C88.7702 18.8639 89.2878 18.6361 89.8672 18.4863C90.4531 18.3366 91.0488 18.2617 91.6543 18.2617C93.0345 18.2617 94.0404 18.4277 94.6719 18.7598V20.6055C93.8451 20.0326 92.7839 19.7461 91.4883 19.7461C91.1302 19.7461 90.7721 19.7852 90.4141 19.8633C90.056 19.9349 89.737 20.0553 89.457 20.2246C89.1771 20.3939 88.9492 20.612 88.7734 20.8789C88.5977 21.1458 88.5098 21.4714 88.5098 21.8555C88.5098 22.2135 88.5749 22.5228 88.7051 22.7832C88.8418 23.0436 89.0404 23.2812 89.3008 23.4961C89.5612 23.7109 89.877 23.9193 90.248 24.1211C90.6257 24.3229 91.0586 24.5443 91.5469 24.7852C92.0482 25.0326 92.5234 25.293 92.9727 25.5664C93.4219 25.8398 93.8158 26.1426 94.1543 26.4746C94.4928 26.8066 94.7598 27.1745 94.9551 27.5781C95.1569 27.9818 95.2578 28.444 95.2578 28.9648C95.2578 29.6549 95.1211 30.2409 94.8477 30.7227C94.5807 31.1979 94.2161 31.5853 93.7539 31.8848C93.2982 32.1842 92.7708 32.3991 92.1719 32.5293C91.5729 32.666 90.9414 32.7344 90.2773 32.7344C90.056 32.7344 89.7826 32.7148 89.457 32.6758C89.1315 32.6432 88.7995 32.5911 88.4609 32.5195C88.1224 32.4544 87.8001 32.373 87.4941 32.2754C87.1947 32.1712 86.9538 32.0573 86.7715 31.9336ZM106.332 19.9805H102.289V32.5H100.648V19.9805H96.6152V18.4961H106.332V19.9805Z" fill="#C9C9C9"/>
<path d="M117.953 17.5254C118.012 17.571 118.041 17.7305 118.041 18.0039C118.041 18.2839 118.012 18.4954 117.953 18.6387L118.08 19.0488C118.295 19.8171 118.507 20.4486 118.715 20.9434C118.975 21.6074 119.232 22.3203 119.486 23.082C120.066 24.8333 120.668 26.334 121.293 27.584C121.924 28.8275 122.501 29.7031 123.021 30.2109C123.347 30.5299 123.549 30.7513 123.627 30.875C123.712 30.9922 123.754 31.1322 123.754 31.2949C123.754 31.5814 123.656 31.8223 123.461 32.0176C123.272 32.2194 123.044 32.3203 122.777 32.3203C121.944 32.3203 120.935 31.0085 119.75 28.3848C119.275 27.3496 118.988 26.832 118.891 26.832C118.578 26.832 117.904 26.9264 116.869 27.1152C115.84 27.304 114.9 27.5254 114.047 27.7793C113.559 27.929 113.249 28.0039 113.119 28.0039C112.956 28.0039 112.787 27.9225 112.611 27.7598C112.579 27.7337 112.54 27.7207 112.494 27.7207C112.351 27.7207 112.042 28.1439 111.566 28.9902C110.785 30.39 110.29 31.2266 110.082 31.5C109.88 31.7669 109.656 31.9004 109.408 31.9004C109.232 31.9004 109.021 31.7962 108.773 31.5879C108.526 31.3861 108.402 31.1777 108.402 30.9629C108.402 30.7546 108.52 30.4746 108.754 30.123C108.988 29.765 109.467 29.0488 110.189 27.9746C111.479 26.0671 112.566 24.2767 113.451 22.6035C114.851 19.9408 115.74 18.3717 116.117 17.8965C116.495 17.4147 116.785 17.1738 116.986 17.1738C117.416 17.1738 117.738 17.291 117.953 17.5254ZM118.549 25.2891C118.321 24.7682 117.986 23.8145 117.543 22.4277C117.061 20.9499 116.755 20.0514 116.625 19.7324C116.267 20.4876 115.714 21.5586 114.965 22.9453L113.197 26.2949C113.334 26.1908 113.695 26.1061 114.281 26.041C114.73 25.9954 115.121 25.9368 115.453 25.8652C117.23 25.5072 118.262 25.3151 118.549 25.2891ZM127.23 30.3672C126.911 31.5391 126.612 33.1829 126.332 35.2988L126.059 37.1445C126.013 37.4049 125.893 37.6621 125.697 37.916C125.502 38.1764 125.323 38.3066 125.16 38.3066C124.958 38.3066 124.727 38.2025 124.467 37.9941C124.213 37.7923 124.086 37.6296 124.086 37.5059C124.086 37.1478 124.167 36.653 124.33 36.0215C125.521 31.2103 126.117 26.985 126.117 23.3457L126.107 22.5254C126.094 21.8223 126.218 21.3112 126.479 20.9922C126.739 20.6732 127.038 20.5137 127.377 20.5137C127.533 20.5137 127.683 20.6374 127.826 20.8848C127.969 21.1257 128.041 21.4707 128.041 21.9199C128.041 22.5514 127.976 23.3164 127.846 24.2148C127.676 25.3477 127.589 25.9987 127.582 26.168C128.552 24.4753 129.581 23.1536 130.668 22.2031C131.755 21.2526 132.764 20.7773 133.695 20.7773C134.353 20.7773 134.906 21.0247 135.355 21.5195C135.811 22.0078 136.039 22.6165 136.039 23.3457C136.039 25.4681 135.225 27.3952 133.598 29.127C131.97 30.8587 130.385 31.7246 128.842 31.7246C128.458 31.7246 128.152 31.627 127.924 31.4316C127.702 31.2363 127.471 30.8815 127.23 30.3672ZM133.295 22.5059C132.377 22.5059 131.241 23.3652 129.887 25.084C128.533 26.8027 127.855 28.1406 127.855 29.0977C127.855 29.332 127.989 29.5599 128.256 29.7812C128.523 30.0026 128.861 30.1133 129.271 30.1133C130.202 30.1133 131.273 29.4264 132.484 28.0527C133.695 26.6725 134.301 25.3184 134.301 23.9902C134.301 23.515 134.203 23.1504 134.008 22.8965C133.819 22.6361 133.581 22.5059 133.295 22.5059ZM141.42 18.4238C141.283 18.4238 141.179 18.2773 141.107 17.9844C141.081 17.8932 141.046 17.7923 141 17.6816C140.824 17.2585 140.736 16.8906 140.736 16.5781C140.736 16.3177 140.889 16.054 141.195 15.7871C141.508 15.5137 141.853 15.377 142.23 15.377C142.419 15.377 142.631 15.4518 142.865 15.6016C143.1 15.7448 143.217 15.8848 143.217 16.0215C143.217 16.2363 143.135 16.6009 142.973 17.1152C142.816 17.6296 142.562 17.9779 142.211 18.1602C141.866 18.3359 141.602 18.4238 141.42 18.4238ZM140.141 29.332C140.141 29.8268 140.209 30.3835 140.346 31.002C140.372 31.1191 140.385 31.2168 140.385 31.2949C140.385 31.4121 140.277 31.5618 140.062 31.7441C139.848 31.9329 139.62 32.0273 139.379 32.0273C138.747 32.0273 138.432 31.4479 138.432 30.2891C138.432 29.0911 138.679 27.1966 139.174 24.6055C139.343 23.7005 139.428 23.1439 139.428 22.9355C139.428 22.5254 139.503 22.1771 139.652 21.8906C139.802 21.5977 140.014 21.4512 140.287 21.4512C140.619 21.4512 140.88 21.5326 141.068 21.6953C141.264 21.8516 141.361 22.0273 141.361 22.2227C141.361 22.418 141.316 22.6751 141.225 22.9941C140.736 24.7129 140.434 25.9434 140.316 26.6855C140.199 27.4277 140.141 28.3099 140.141 29.332ZM150.639 27.9453C149.727 29.1693 148.826 30.0872 147.934 30.6992C147.042 31.3112 146.225 31.6172 145.482 31.6172C144.981 31.6172 144.548 31.4056 144.184 30.9824C143.819 30.5592 143.637 30.0156 143.637 29.3516C143.637 27.6393 144.402 25.7969 145.932 23.8242C147.462 21.8451 148.982 20.8555 150.492 20.8555C151.039 20.8555 151.446 21.168 151.713 21.793C151.798 22.0013 151.931 22.1055 152.113 22.1055C152.634 22.1055 152.895 22.3073 152.895 22.7109C152.895 22.9128 152.862 23.1895 152.797 23.541C152.445 25.4616 152.27 26.8158 152.27 27.6035C152.27 29.179 152.569 30.123 153.168 30.4355C153.454 30.5918 153.598 30.7839 153.598 31.0117C153.598 31.2135 153.458 31.4154 153.178 31.6172C152.898 31.8255 152.628 31.9297 152.367 31.9297C151.866 31.9297 151.452 31.5846 151.127 30.8945C150.801 30.2044 150.639 29.2214 150.639 27.9453ZM150.043 22.4473C149.184 22.4473 148.184 23.2546 147.045 24.8691C145.906 26.4772 145.336 27.8118 145.336 28.873C145.336 29.6217 145.583 29.9961 146.078 29.9961C146.794 29.9961 147.787 29.2734 149.057 27.8281C150.326 26.3828 150.961 25.0547 150.961 23.8438C150.961 22.9128 150.655 22.4473 150.043 22.4473Z" fill="#9461FF"/>
</g>
<defs>
<filter id="filter0_d_1001_438" x="8.65479" y="8.375" width="36.8877" height="33.1208" filterUnits="userSpaceOnUse" color-interpolation-filters="sRGB">
<feFlood flood-opacity="0" result="BackgroundImageFix"/>
<feColorMatrix in="SourceAlpha" type="matrix" values="0 0 0 0 0 0 0 0 0 0 0 0 0 0 0 0 0 0 127 0" result="hardAlpha"/>
<feOffset dx="2" dy="1"/>
<feGaussianBlur stdDeviation="1"/>
<feComposite in2="hardAlpha" operator="out"/>
<feColorMatrix type="matrix" values="0 0 0 0 0 0 0 0 0 0 0 0 0 0 0 0 0 0 0.15 0"/>
<feBlend mode="normal" in2="BackgroundImageFix" result="effect1_dropShadow_1001_438"/>
<feBlend mode="normal" in="SourceGraphic" in2="effect1_dropShadow_1001_438" result="shape"/>
</filter>
<filter id="filter1_d_1001_438" x="61.5" y="6.5" width="95" height="43" filterUnits="userSpaceOnUse" color-interpolation-filters="sRGB">
<feFlood flood-opacity="0" result="BackgroundImageFix"/>
<feColorMatrix in="SourceAlpha" type="matrix" values="0 0 0 0 0 0 0 0 0 0 0 0 0 0 0 0 0 0 127 0" result="hardAlpha"/>
<feOffset dy="4"/>
<feGaussianBlur stdDeviation="1"/>
<feComposite in2="hardAlpha" operator="out"/>
<feColorMatrix type="matrix" values="0 0 0 0 0 0 0 0 0 0 0 0 0 0 0 0 0 0 0.15 0"/>
<feBlend mode="normal" in2="BackgroundImageFix" result="effect1_dropShadow_1001_438"/>
<feBlend mode="normal" in="SourceGraphic" in2="effect1_dropShadow_1001_438" result="shape"/>
</filter>
</defs>
</svg>
