<svg width="174" height="50" viewBox="0 0 174 50" fill="none" xmlns="http://www.w3.org/2000/svg">
<mask id="mask0_938_199" style="mask-type:alpha" maskUnits="userSpaceOnUse" x="0" y="0" width="50" height="50">
<rect width="50" height="50" rx="5" fill="#6C38D9"/>
</mask>
<g mask="url(#mask0_938_199)">
<path d="M0 0H50V50H0V0Z" fill="#B0D0FF" fill-opacity="0.05"/>
<g filter="url(#filter0_d_938_199)">
<path d="M40.7164 34.8869C41.642 36.4903 40.4869 38.4959 38.6355 38.4959H10.5622C8.7108 38.4959 7.55567 36.4903 8.48137 34.8869L9.17827 33.6799L40.0464 33.7268L40.7164 34.8869Z" fill="#C4866C"/>
<path d="M40.1137 33.844L26.681 10.578C26.2181 9.7763 25.4066 9.375 24.5965 9.375C23.7865 9.375 22.9786 9.7763 22.5157 10.578L8.48088 34.8869C7.55518 36.4903 8.71031 38.4959 10.5617 38.4959H11.9682L24.6001 16.5929L37.2183 38.4959H38.635C40.4864 38.4959 41.6415 36.4903 40.7159 34.8869L40.1137 33.844ZM24.7084 23.386C24.6854 23.3462 24.6281 23.3462 24.6052 23.386L20.6612 30.2171C20.6383 30.2568 20.667 30.3065 20.7129 30.3065H28.6008C28.6467 30.3065 28.6753 30.2568 28.6523 30.2171L24.7084 23.386Z" fill="#FFEED0"/>
<path d="M18.847 33.686L16.0731 38.4959H11.9688L14.7427 33.686H18.847Z" fill="#A56453"/>
</g>
</g>
<g filter="url(#filter1_d_938_199)">
<path d="M77.25 34H74.9062L72.0938 29.2891C71.8359 28.8516 71.5859 28.4805 71.3438 28.1758C71.1016 27.8633 70.8516 27.6094 70.5938 27.4141C70.3438 27.2188 70.0703 27.0781 69.7734 26.9922C69.4844 26.8984 69.1562 26.8516 68.7891 26.8516H67.1719V34H65.2031V17.1953H70.2188C70.9531 17.1953 71.6289 17.2891 72.2461 17.4766C72.8711 17.6562 73.4102 17.9336 73.8633 18.3086C74.3242 18.6836 74.6836 19.1523 74.9414 19.7148C75.1992 20.2695 75.3281 20.9219 75.3281 21.6719C75.3281 22.2578 75.2383 22.7969 75.0586 23.2891C74.8867 23.7734 74.6367 24.207 74.3086 24.5898C73.9883 24.9727 73.5977 25.3008 73.1367 25.5742C72.6836 25.8398 72.1719 26.0469 71.6016 26.1953V26.2422C71.8828 26.3672 72.125 26.5117 72.3281 26.6758C72.5391 26.832 72.7383 27.0195 72.9258 27.2383C73.1133 27.457 73.2969 27.707 73.4766 27.9883C73.6641 28.2617 73.8711 28.582 74.0977 28.9492L77.25 34ZM67.1719 18.9766V25.0703H69.8438C70.3359 25.0703 70.7891 24.9961 71.2031 24.8477C71.625 24.6992 71.9883 24.4883 72.293 24.2148C72.5977 23.9336 72.8359 23.5938 73.0078 23.1953C73.1797 22.7891 73.2656 22.3359 73.2656 21.8359C73.2656 20.9375 72.9727 20.2383 72.3867 19.7383C71.8086 19.2305 70.9688 18.9766 69.8672 18.9766H67.1719ZM88.4766 34H79.5703V17.1953H88.1016V18.9766H81.5391V24.5664H87.6094V26.3359H81.5391V32.2188H88.4766V34ZM90.9258 33.3203V31C91.1914 31.2344 91.5078 31.4453 91.875 31.6328C92.25 31.8203 92.6406 31.9805 93.0469 32.1133C93.4609 32.2383 93.875 32.3359 94.2891 32.4062C94.7031 32.4766 95.0859 32.5117 95.4375 32.5117C96.6484 32.5117 97.5508 32.2891 98.1445 31.8438C98.7461 31.3906 99.0469 30.7422 99.0469 29.8984C99.0469 29.4453 98.9453 29.0508 98.7422 28.7148C98.5469 28.3789 98.2734 28.0742 97.9219 27.8008C97.5703 27.5195 97.1523 27.2539 96.668 27.0039C96.1914 26.7461 95.6758 26.4766 95.1211 26.1953C94.5352 25.8984 93.9883 25.5977 93.4805 25.293C92.9727 24.9883 92.5312 24.6523 92.1562 24.2852C91.7812 23.918 91.4844 23.5039 91.2656 23.043C91.0547 22.5742 90.9492 22.0273 90.9492 21.4023C90.9492 20.6367 91.1172 19.9727 91.4531 19.4102C91.7891 18.8398 92.2305 18.3711 92.7773 18.0039C93.3242 17.6367 93.9453 17.3633 94.6406 17.1836C95.3438 17.0039 96.0586 16.9141 96.7852 16.9141C98.4414 16.9141 99.6484 17.1133 100.406 17.5117V19.7266C99.4141 19.0391 98.1406 18.6953 96.5859 18.6953C96.1562 18.6953 95.7266 18.7422 95.2969 18.8359C94.8672 18.9219 94.4844 19.0664 94.1484 19.2695C93.8125 19.4727 93.5391 19.7344 93.3281 20.0547C93.1172 20.375 93.0117 20.7656 93.0117 21.2266C93.0117 21.6562 93.0898 22.0273 93.2461 22.3398C93.4102 22.6523 93.6484 22.9375 93.9609 23.1953C94.2734 23.4531 94.6523 23.7031 95.0977 23.9453C95.5508 24.1875 96.0703 24.4531 96.6562 24.7422C97.2578 25.0391 97.8281 25.3516 98.3672 25.6797C98.9062 26.0078 99.3789 26.3711 99.7852 26.7695C100.191 27.168 100.512 27.6094 100.746 28.0938C100.988 28.5781 101.109 29.1328 101.109 29.7578C101.109 30.5859 100.945 31.2891 100.617 31.8672C100.297 32.4375 99.8594 32.9023 99.3047 33.2617C98.7578 33.6211 98.125 33.8789 97.4062 34.0352C96.6875 34.1992 95.9297 34.2812 95.1328 34.2812C94.8672 34.2812 94.5391 34.2578 94.1484 34.2109C93.7578 34.1719 93.3594 34.1094 92.9531 34.0234C92.5469 33.9453 92.1602 33.8477 91.793 33.7305C91.4336 33.6055 91.1445 33.4688 90.9258 33.3203ZM114.398 18.9766H109.547V34H107.578V18.9766H102.738V17.1953H114.398V18.9766Z" fill="#C9C9C9"/>
<path d="M121.734 29.2148C121.602 29.543 121.191 30.2695 120.504 31.3945C119.824 32.5117 119.352 33.1328 119.086 33.2578C118.82 33.3906 118.586 33.457 118.383 33.457C118.102 33.457 117.762 33.3047 117.363 33C116.973 32.6875 116.777 32.3672 116.777 32.0391C116.777 31.7344 117.758 30.0898 119.719 27.1055C120.789 25.4727 121.766 23.8555 122.648 22.2539C124.422 19.0195 125.504 17.1406 125.895 16.6172C126.293 16.0859 126.699 15.8203 127.113 15.8203C127.777 15.8203 128.258 15.9922 128.555 16.3359C128.703 16.4453 128.777 16.707 128.777 17.1211C128.777 17.4258 128.75 17.6719 128.695 17.8594C130.125 22.2188 131.242 25.3047 132.047 27.1172C132.859 28.9219 133.672 30.2305 134.484 31.043C134.891 31.4492 135.137 31.7227 135.223 31.8633C135.316 32.0039 135.363 32.1914 135.363 32.4258C135.363 32.8555 135.207 33.2148 134.895 33.5039C134.582 33.8008 134.211 33.9492 133.781 33.9492C133.188 33.9492 132.582 33.6055 131.965 32.918C131.355 32.2305 130.777 31.2852 130.23 30.082C129.691 28.8789 129.422 28.2031 129.422 28.0547C129.422 28.0234 129.402 28.0078 129.363 28.0078C128.941 28.0078 128 28.1562 126.539 28.4531C125.086 28.75 123.918 29.0391 123.035 29.3203C122.809 29.3906 122.609 29.4258 122.438 29.4258C122.133 29.4258 121.898 29.3555 121.734 29.2148ZM128.484 25.6289C128.297 25.168 127.742 23.5273 126.82 20.707C126.734 20.4492 126.676 20.2852 126.645 20.2148L123.316 26.543C123.809 26.457 124.312 26.3789 124.828 26.3086C125.172 26.2695 126.047 26.1055 127.453 25.8164C127.797 25.7461 128.141 25.6836 128.484 25.6289ZM139.652 32.168C139.52 32.7148 139.387 33.543 139.254 34.6523L138.691 39.2578C138.598 40.0078 138.414 40.5273 138.141 40.8164C137.875 41.1055 137.547 41.25 137.156 41.25C136.805 41.25 136.469 41.1172 136.148 40.8516C135.836 40.5938 135.68 40.3047 135.68 39.9844C135.68 39.3516 135.777 38.6211 135.973 37.793C137.137 33.1445 137.773 28.3203 137.883 23.3203V23.0859C137.883 22.0391 137.91 21.3438 137.965 21C138.027 20.6484 138.195 20.3398 138.469 20.0742C138.75 19.8086 139.145 19.6758 139.652 19.6758C140.504 19.6758 140.93 20.3281 140.93 21.6328C140.93 22.1641 140.832 23.0664 140.637 24.3398L140.52 25.1484C141.41 23.6641 142.469 22.4336 143.695 21.457C144.922 20.4727 146.02 19.9805 146.988 19.9805C147.863 19.9805 148.605 20.293 149.215 20.918C149.832 21.543 150.141 22.3281 150.141 23.2734C150.141 25.7969 149.16 28.0938 147.199 30.1641C145.246 32.2266 143.312 33.2578 141.398 33.2578C140.492 33.2578 139.91 32.8945 139.652 32.168ZM146.531 22.6406C145.578 22.6406 144.34 23.5703 142.816 25.4297C141.301 27.2891 140.543 28.75 140.543 29.8125C140.543 30.0859 140.676 30.332 140.941 30.5508C141.215 30.7617 141.531 30.8672 141.891 30.8672C142.883 30.8672 144.02 30.0898 145.301 28.5352C146.59 26.9727 147.234 25.4648 147.234 24.0117C147.234 23.5273 147.16 23.1797 147.012 22.9688C146.863 22.75 146.703 22.6406 146.531 22.6406ZM158.895 15.5859C158.895 16.1406 158.645 16.6289 158.145 17.0508C157.645 17.4648 157.211 17.6719 156.844 17.6719C156.375 17.6719 155.957 17.4766 155.59 17.0859C155.23 16.6953 155.051 16.3047 155.051 15.9141C155.051 15.3516 155.23 14.8984 155.59 14.5547C155.949 14.2031 156.465 14.0273 157.137 14.0273C157.66 14.0273 158.082 14.1836 158.402 14.4961C158.73 14.8008 158.895 15.1641 158.895 15.5859ZM153.234 25.2188V25.2305C153.484 23.8086 153.609 22.9961 153.609 22.793C153.609 22.2148 153.734 21.7305 153.984 21.3398C154.242 20.9492 154.598 20.7539 155.051 20.7539C155.582 20.7539 155.996 20.8789 156.293 21.1289C156.59 21.3789 156.738 21.6602 156.738 21.9727C156.738 22.2852 156.594 22.9297 156.305 23.9062L156.234 24.1641C155.805 25.6719 155.547 26.9023 155.461 27.8555C155.375 28.8086 155.332 29.5781 155.332 30.1641C155.332 30.6406 155.414 31.2773 155.578 32.0742C155.602 32.2148 155.613 32.332 155.613 32.4258C155.613 32.6055 155.441 32.8477 155.098 33.1523C154.762 33.457 154.398 33.6094 154.008 33.6094C152.977 33.6094 152.461 32.8281 152.461 31.2656C152.461 29.9375 152.648 28.3203 153.023 26.4141C153.102 25.9922 153.172 25.5938 153.234 25.2188ZM167.32 29.0742C165.266 31.7852 163.281 33.1406 161.367 33.1406C160.664 33.1406 160.059 32.8633 159.551 32.3086C159.043 31.7539 158.789 31.0469 158.789 30.1875C158.789 28.1172 159.711 25.9141 161.555 23.5781C163.398 21.2344 165.258 20.0625 167.133 20.0625C168.086 20.0625 168.711 20.543 169.008 21.5039C169.906 21.5039 170.355 21.8477 170.355 22.5352C170.355 22.8633 170.27 23.457 170.098 24.3164C169.785 25.9258 169.629 27.2109 169.629 28.1719C169.629 29.1719 169.695 29.875 169.828 30.2812C169.969 30.6875 170.07 30.9531 170.133 31.0781C170.195 31.2031 170.383 31.3359 170.695 31.4766C171.008 31.625 171.164 31.832 171.164 32.0977C171.164 32.4961 170.961 32.8281 170.555 33.0938C170.156 33.3594 169.738 33.4922 169.301 33.4922C167.832 33.4922 167.172 32.0195 167.32 29.0742ZM166.617 22.5703C165.828 22.5703 164.801 23.4453 163.535 25.1953C162.277 26.9375 161.648 28.418 161.648 29.6367C161.648 30.2773 161.781 30.5977 162.047 30.5977C162.969 30.5977 164.102 29.7812 165.445 28.1484C166.797 26.5078 167.473 25.0742 167.473 23.8477C167.473 23.457 167.383 23.1484 167.203 22.9219C167.031 22.6875 166.836 22.5703 166.617 22.5703Z" fill="#9461FF"/>
</g>
<defs>
<filter id="filter0_d_938_199" x="8.15479" y="8.375" width="36.8877" height="33.1208" filterUnits="userSpaceOnUse" color-interpolation-filters="sRGB">
<feFlood flood-opacity="0" result="BackgroundImageFix"/>
<feColorMatrix in="SourceAlpha" type="matrix" values="0 0 0 0 0 0 0 0 0 0 0 0 0 0 0 0 0 0 127 0" result="hardAlpha"/>
<feOffset dx="2" dy="1"/>
<feGaussianBlur stdDeviation="1"/>
<feComposite in2="hardAlpha" operator="out"/>
<feColorMatrix type="matrix" values="0 0 0 0 0 0 0 0 0 0 0 0 0 0 0 0 0 0 0.15 0"/>
<feBlend mode="normal" in2="BackgroundImageFix" result="effect1_dropShadow_938_199"/>
<feBlend mode="normal" in="SourceGraphic" in2="effect1_dropShadow_938_199" result="shape"/>
</filter>
<filter id="filter1_d_938_199" x="61" y="3" width="114" height="50" filterUnits="userSpaceOnUse" color-interpolation-filters="sRGB">
<feFlood flood-opacity="0" result="BackgroundImageFix"/>
<feColorMatrix in="SourceAlpha" type="matrix" values="0 0 0 0 0 0 0 0 0 0 0 0 0 0 0 0 0 0 127 0" result="hardAlpha"/>
<feOffset dy="4"/>
<feGaussianBlur stdDeviation="1"/>
<feComposite in2="hardAlpha" operator="out"/>
<feColorMatrix type="matrix" values="0 0 0 0 0 0 0 0 0 0 0 0 0 0 0 0 0 0 0.25 0"/>
<feBlend mode="normal" in2="BackgroundImageFix" result="effect1_dropShadow_938_199"/>
<feBlend mode="normal" in="SourceGraphic" in2="effect1_dropShadow_938_199" result="shape"/>
</filter>
</defs>
</svg>
