<svg width="40" height="41" viewBox="0 0 40 41" fill="none" xmlns="http://www.w3.org/2000/svg">
<path d="M32.5728 28.4095C33.3133 29.6922 32.3892 31.2966 30.9081 31.2966H8.44947C6.96835 31.2966 6.04424 29.6922 6.7848 28.4095L7.34233 27.4438L32.0369 27.4813L32.5728 28.4095Z" fill="#C4866C"/>
<path d="M32.0911 27.5752L21.3449 8.96238C20.9746 8.32104 20.3253 8 19.6773 8C19.0293 8 18.383 8.32104 18.0127 8.96238L6.7848 28.4095C6.04424 29.6922 6.96835 31.2967 8.44947 31.2967H9.57465L19.6802 13.7743L29.7748 31.2967H30.9081C32.3892 31.2967 33.3133 29.6922 32.5728 28.4095L32.0911 27.5752ZM19.7668 19.2088C19.7484 19.177 19.7026 19.177 19.6843 19.2088L16.5291 24.6737C16.5108 24.7054 16.5337 24.7452 16.5704 24.7452H22.8807C22.9174 24.7452 22.9404 24.7054 22.922 24.6737L19.7668 19.2088Z" fill="#FFEED0"/>
<path d="M15.0773 27.4487L12.8582 31.2966H9.57471L11.7939 27.4487H15.0773Z" fill="#A56453"/>
</svg>
